<?xml version="1.0" encoding="UTF-8"?>
<!DOCTYPE svg PUBLIC "-//W3C//DTD SVG 1.1//EN" "http://www.w3.org/Graphics/SVG/1.1/DTD/svg11.dtd">
<!-- Creator: CorelDRAW X8 -->
<svg xmlns="http://www.w3.org/2000/svg" xml:space="preserve" width="169.333mm" height="186.267mm" version="1.1" style="shape-rendering:geometricPrecision; text-rendering:geometricPrecision; image-rendering:optimizeQuality; fill-rule:evenodd; clip-rule:evenodd"
viewBox="0 0 16933 18627"
 xmlns:xlink="http://www.w3.org/1999/xlink">
 <defs>
  <style type="text/css">
   <![CDATA[
    .str0 {stroke:black;stroke-width:228.6}
    .fil3 {fill:none}
    .fil1 {fill:black}
    .fil2 {fill:red}
    .fil0 {fill:white}
   ]]>
  </style>
 </defs>
 <g id="Camada_x0020_1">
  <metadata id="CorelCorpID_0Corel-Layer"/>
  <path class="fil0 str0" d="M1541 5513l0 7668c0,268 65,681 158,930 33,87 64,177 101,262l116 246c132,276 344,510 554,725 18,19 24,26 41,45 193,213 448,373 700,509 313,170 777,340 1128,340l8220 0c496,0 1114,-297 1530,-595 229,-164 546,-493 705,-728 29,-43 38,-65 67,-106 155,-217 307,-596 382,-861 15,-53 25,-73 34,-129 24,-152 63,-304 63,-465l0 -7996c0,-205 -60,-454 -104,-622 -264,-1002 -1076,-1806 -2047,-2132 -225,-75 -557,-147 -785,-147l-7893 0c-517,0 -1033,200 -1436,429 -51,28 -61,46 -112,77 -268,165 -311,224 -519,431 -204,202 -171,163 -343,400l-212 358c-22,42 -43,75 -66,124l-154 415c-71,249 -128,538 -128,822z"/>
  <g id="_904936016">
   <path class="fil1" d="M3065 6191c0,1529 1239,2769 2768,2769 1529,0 2769,-1240 2769,-2769 0,-1529 -1240,-2768 -2769,-2768 -1529,0 -2768,1239 -2768,2768zm5279 0c0,1387 -1124,2511 -2511,2511 -1386,0 -2510,-1124 -2510,-2511 0,-1386 1124,-2510 2510,-2510 1387,0 2511,1124 2511,2510z"/>
   <path class="fil1" d="M8981 7267c0,935 758,1694 1694,1694 935,0 1693,-759 1693,-1694 0,-935 -758,-1694 -1693,-1694 -936,0 -1694,759 -1694,1694zm1694 1436c-793,0 -1436,-643 -1436,-1436 0,-793 643,-1436 1436,-1436 792,0 1435,643 1435,1436 0,793 -643,1436 -1435,1436z"/>
   <path class="fil1" d="M4433 9993l0 4012c0,171 68,335 189,456 121,121 285,189 456,189l3147 0 0 -1833 1285 1833 224 0 1122 0c357,0 646,-289 646,-645l0 -1222 2532 719 0 -2866 -2532 718 0 -1361c0,-172 -68,-336 -189,-457 -121,-121 -286,-189 -457,-189l-5778 0c-171,0 -335,68 -456,189 -121,121 -189,285 -189,457zm258 4012l0 -4012c0,-103 41,-202 113,-274 73,-73 171,-114 274,-114l5778 0c103,0 201,41 274,114 73,72 113,171 113,274l0 4012c0,214 -173,387 -387,387l-1212 0 -1677 -2393 0 2393 -2889 0c-103,0 -201,-41 -274,-113 -72,-73 -113,-172 -113,-274zm6811 -1490l0 -892 2274 -646 0 2183 -2274 -645z"/>
   <path class="fil1" d="M6166 12145c68,840 709,1522 1543,1642l0 -261c-706,-119 -1238,-706 -1287,-1420 -50,-714 397,-1369 1079,-1585 683,-215 1424,65 1793,679 369,613 270,1399 -239,1901l150 214c614,-577 748,-1503 321,-2230 -426,-727 -1298,-1063 -2103,-810 -804,254 -1325,1030 -1257,1870z"/>
   <polygon class="fil1" points="8531,14214 9006,15722 9253,15645 8777,14137 "/>
   <path class="fil2" d="M6935 12026c12,461 328,857 774,973l0 -270c-314,-111 -522,-411 -516,-744 5,-333 223,-625 541,-725 318,-100 664,14 860,283 196,270 197,634 4,906l154 220c300,-350 331,-856 76,-1240 -254,-384 -732,-554 -1172,-415 -439,138 -733,551 -721,1012z"/>
   <path class="fil2" d="M6166 12145c68,840 709,1522 1543,1642l0 -261c-706,-119 -1238,-706 -1287,-1420 -50,-714 397,-1369 1079,-1585 683,-215 1424,65 1793,679 369,613 270,1399 -239,1901l150 214c614,-577 748,-1503 321,-2230 -426,-727 -1298,-1063 -2103,-810 -804,254 -1325,1030 -1257,1870z"/>
   <path class="fil2" d="M9239 7267c0,793 643,1436 1436,1436 792,0 1435,-643 1435,-1436 0,-793 -643,-1436 -1435,-1436 -793,0 -1436,643 -1436,1436z"/>
  </g>
  <g id="_904929128">
   <line class="fil3" x1="5078" y1="9347" x2="10856" y2= "9347" />
   <line class="fil3" x1="11502" y1="9993" x2="11502" y2= "11354" />
   <line class="fil3" x1="11502" y1="11623" x2="11502" y2= "12515" />
   <line class="fil3" x1="11502" y1="12783" x2="11502" y2= "14005" />
   <line class="fil3" x1="10856" y1="14650" x2="9734" y2= "14650" />
   <line class="fil3" x1="4433" y1="9993" x2="4433" y2= "14005" />
   <path class="fil3" d="M12110 7267c0,-793 -643,-1436 -1435,-1436 -793,0 -1436,643 -1436,1436 0,793 643,1436 1436,1436 792,0 1435,-643 1435,-1436z"/>
   <line class="fil3" x1="13776" y1="10977" x2="13776" y2= "13160" />
   <line class="fil3" x1="13776" y1="13160" x2="11502" y2= "12515" />
   <line class="fil3" x1="13776" y1="10977" x2="11502" y2= "11623" />
   <path class="fil3" d="M4433 14005c0,171 68,335 189,456 121,121 285,189 456,189"/>
   <path class="fil3" d="M10856 14650c357,0 646,-289 646,-645"/>
   <path class="fil3" d="M5078 9347c-171,0 -335,68 -456,189 -121,121 -189,285 -189,457"/>
   <path class="fil3" d="M11502 9993c0,-172 -68,-336 -189,-457 -121,-121 -286,-189 -457,-189"/>
   <line class="fil3" x1="10856" y1="14392" x2="9644" y2= "14392" />
   <path class="fil3" d="M4691 14005c0,102 41,201 113,274 73,72 171,113 274,113"/>
   <line class="fil3" x1="4691" y1="9993" x2="4691" y2= "14005" />
   <path class="fil3" d="M10856 14392c214,0 387,-173 387,-387"/>
   <line class="fil3" x1="11243" y1="9993" x2="11243" y2= "14005" />
   <line class="fil3" x1="5078" y1="9605" x2="10856" y2= "9605" />
   <path class="fil3" d="M5078 9605c-103,0 -201,41 -274,114 -72,72 -113,171 -113,274"/>
   <path class="fil3" d="M11243 9993c0,-103 -40,-202 -113,-274 -73,-73 -171,-114 -274,-114"/>
   <polyline class="fil3" points="11502,11354 14034,10636 14034,13502 11502,12783 "/>
   <line class="fil3" x1="9510" y1="14650" x2="10484" y2= "14650" />
   <line class="fil3" x1="9510" y1="14650" x2="8225" y2= "12817" />
   <line class="fil3" x1="7967" y1="14392" x2="5078" y2= "14392" />
   <line class="fil3" x1="8225" y1="14650" x2="5078" y2= "14650" />
   <line class="fil3" x1="8225" y1="14650" x2="8225" y2= "12817" />
   <polyline class="fil3" points="9644,14392 7967,11999 7967,14392 "/>
   <line class="fil3" x1="8531" y1="14214" x2="9006" y2= "15722" />
   <line class="fil3" x1="8777" y1="14137" x2="9253" y2= "15645" />
   <line class="fil3" x1="8777" y1="14137" x2="8531" y2= "14214" />
   <line class="fil3" x1="9253" y1="15645" x2="9006" y2= "15722" />
   <path class="fil3" d="M8344 6191c0,-1386 -1124,-2510 -2511,-2510 -1386,0 -2510,1124 -2510,2510 0,1387 1124,2511 2510,2511 1387,0 2511,-1124 2511,-2511z"/>
   <path class="fil3" d="M12368 7267c0,-935 -758,-1694 -1693,-1694 -936,0 -1694,759 -1694,1694 0,935 758,1694 1694,1694 935,0 1693,-759 1693,-1694z"/>
   <path class="fil3" d="M8602 6191c0,-1529 -1240,-2768 -2769,-2768 -1529,0 -2768,1239 -2768,2768 0,1529 1239,2769 2768,2769 1529,0 2769,-1240 2769,-2769z"/>
   <line class="fil3" x1="9205" y1="13315" x2="9055" y2= "13101" />
   <path class="fil3" d="M8598 12449c193,-272 192,-636 -4,-906 -196,-269 -542,-383 -860,-283 -318,100 -536,392 -541,725 -6,333 202,633 516,744"/>
   <path class="fil3" d="M8752 12669c300,-350 331,-856 76,-1240 -254,-384 -732,-554 -1172,-415 -439,138 -733,551 -721,1012 12,461 328,857 774,973"/>
   <line class="fil3" x1="7709" y1="12729" x2="7709" y2= "12999" />
   <path class="fil3" d="M9055 13101c509,-502 608,-1288 239,-1901 -369,-614 -1110,-894 -1793,-679 -682,216 -1129,871 -1079,1585 49,714 581,1301 1287,1420"/>
   <path class="fil3" d="M9205 13315c614,-577 748,-1503 321,-2230 -426,-727 -1298,-1063 -2103,-810 -804,254 -1325,1030 -1257,1870 68,840 709,1522 1543,1642"/>
   <line class="fil3" x1="7709" y1="13526" x2="7709" y2= "13787" />
   <line class="fil3" x1="8752" y1="12669" x2="8598" y2= "12449" />
  </g>
 </g>
</svg>
