<?xml version="1.0" encoding="UTF-8"?>
<!DOCTYPE svg PUBLIC "-//W3C//DTD SVG 1.1//EN" "http://www.w3.org/Graphics/SVG/1.1/DTD/svg11.dtd">
<!-- Creator: CorelDRAW X8 -->
<svg xmlns="http://www.w3.org/2000/svg" xml:space="preserve" width="169.333mm" height="169.333mm" version="1.1" style="shape-rendering:geometricPrecision; text-rendering:geometricPrecision; image-rendering:optimizeQuality; fill-rule:evenodd; clip-rule:evenodd"
viewBox="0 0 16933 16933"
 xmlns:xlink="http://www.w3.org/1999/xlink">
 <defs>
  <style type="text/css">
   <![CDATA[
    .fil2 {fill:none}
    .fil0 {fill:black}
    .fil1 {fill:red}
   ]]>
  </style>
 </defs>
 <g id="Camada_x0020_1">
  <metadata id="CorelCorpID_0Corel-Layer"/>
  <g id="_956587400">
   <path class="fil0" d="M1714 4735c0,1888 1531,3419 3420,3419 1888,0 3419,-1531 3419,-3419 0,-1889 -1531,-3419 -3419,-3419 -1889,0 -3420,1530 -3420,3419zm6520 0c0,1712 -1388,3100 -3100,3100 -1713,0 -3101,-1388 -3101,-3100 0,-1712 1388,-3101 3101,-3101 1712,0 3100,1389 3100,3101z"/>
   <path class="fil0" d="M9021 6063c0,1155 936,2092 2092,2092 1155,0 2091,-936 2091,-2092 0,-1155 -936,-2091 -2091,-2091 -1156,0 -2092,936 -2092,2091zm2092 1773c-980,0 -1773,-794 -1773,-1773 0,-979 793,-1773 1773,-1773 979,0 1772,794 1772,1773 0,979 -793,1773 -1772,1773z"/>
   <path class="fil0" d="M3404 9429l0 4955c0,212 84,415 233,564 150,150 352,234 564,234l3887 0 0 -2264 1586 2264 277 0 1386 0c440,0 797,-357 797,-798l0 -1509 3127 888 0 -3540 -3127 888 0 -1682c0,-211 -84,-414 -234,-563 -149,-150 -352,-234 -563,-234l-7136 0c-212,0 -414,84 -564,234 -149,149 -233,352 -233,563zm318 4955l0 -4955c0,-126 51,-248 141,-338 89,-89 211,-140 338,-140l7136 0c127,0 248,51 338,140 90,90 140,212 140,338l0 4955c0,265 -214,479 -478,479l-1497 0 -2071 -2956 0 2956 -3568 0c-127,0 -249,-51 -338,-140 -90,-90 -141,-212 -141,-339zm8412 -1840l0 -1102 2808 -797 0 2696 -2808 -797z"/>
   <path class="fil0" d="M5544 12088c85,1038 875,1879 1906,2028l0 -323c-872,-147 -1529,-872 -1590,-1754 -61,-882 490,-1691 1333,-1956 843,-266 1759,80 2215,837 456,757 333,1728 -296,2349l185 264c759,-713 924,-1856 397,-2754 -526,-899 -1604,-1314 -2597,-1001 -993,314 -1637,1272 -1553,2310z"/>
   <polygon class="fil0" points="8465,14643 9052,16505 9356,16409 8769,14547 "/>
   <path class="fil1" d="M6494 11941c15,568 405,1058 956,1201l0 -333c-388,-137 -645,-507 -638,-918 7,-412 277,-773 669,-896 392,-124 820,17 1062,350 241,333 243,783 4,1118l191 272c370,-432 408,-1057 94,-1532 -314,-474 -904,-684 -1447,-512 -543,171 -906,681 -891,1250z"/>
   <path class="fil1" d="M5544 12088c85,1038 875,1879 1906,2028l0 -323c-872,-147 -1529,-872 -1590,-1754 -61,-882 490,-1691 1333,-1956 843,-266 1759,80 2215,837 456,757 333,1728 -296,2349l185 264c759,-713 924,-1856 397,-2754 -526,-899 -1604,-1314 -2597,-1001 -993,314 -1637,1272 -1553,2310z"/>
   <path class="fil1" d="M9340 6063c0,979 793,1773 1773,1773 979,0 1772,-794 1772,-1773 0,-979 -793,-1773 -1772,-1773 -980,0 -1773,794 -1773,1773z"/>
  </g>
  <g id="_956605112">
   <line class="fil2" x1="4201" y1="8632" x2="11337" y2= "8632" />
   <line class="fil2" x1="12134" y1="9429" x2="12134" y2= "11111" />
   <line class="fil2" x1="12134" y1="11442" x2="12134" y2= "12544" />
   <line class="fil2" x1="12134" y1="12875" x2="12134" y2= "14384" />
   <line class="fil2" x1="11337" y1="15182" x2="9951" y2= "15182" />
   <line class="fil2" x1="3404" y1="9429" x2="3404" y2= "14384" />
   <path class="fil2" d="M12885 6063c0,-979 -793,-1773 -1772,-1773 -980,0 -1773,794 -1773,1773 0,979 793,1773 1773,1773 979,0 1772,-794 1772,-1773z"/>
   <line class="fil2" x1="14942" y1="10645" x2="14942" y2= "13341" />
   <line class="fil2" x1="14942" y1="13341" x2="12134" y2= "12544" />
   <line class="fil2" x1="14942" y1="10645" x2="12134" y2= "11442" />
   <path class="fil2" d="M3404 14384c0,212 84,415 233,564 150,150 352,234 564,234"/>
   <path class="fil2" d="M11337 15182c440,0 797,-357 797,-798"/>
   <path class="fil2" d="M4201 8632c-212,0 -414,84 -564,234 -149,149 -233,352 -233,563"/>
   <path class="fil2" d="M12134 9429c0,-211 -84,-414 -234,-563 -149,-150 -352,-234 -563,-234"/>
   <line class="fil2" x1="11337" y1="14863" x2="9840" y2= "14863" />
   <path class="fil2" d="M3722 14384c0,127 51,249 141,339 89,89 211,140 338,140"/>
   <line class="fil2" x1="3722" y1="9429" x2="3722" y2= "14384" />
   <path class="fil2" d="M11337 14863c264,0 478,-214 478,-479"/>
   <line class="fil2" x1="11815" y1="9429" x2="11815" y2= "14384" />
   <line class="fil2" x1="4201" y1="8951" x2="11337" y2= "8951" />
   <path class="fil2" d="M4201 8951c-127,0 -249,51 -338,140 -90,90 -141,212 -141,338"/>
   <path class="fil2" d="M11815 9429c0,-126 -50,-248 -140,-338 -90,-89 -211,-140 -338,-140"/>
   <polyline class="fil2" points="12134,11111 15261,10223 15261,13763 12134,12875 "/>
   <line class="fil2" x1="9674" y1="15182" x2="10877" y2= "15182" />
   <line class="fil2" x1="9674" y1="15182" x2="8088" y2= "12918" />
   <line class="fil2" x1="7769" y1="14863" x2="4201" y2= "14863" />
   <line class="fil2" x1="8088" y1="15182" x2="4201" y2= "15182" />
   <line class="fil2" x1="8088" y1="15182" x2="8088" y2= "12918" />
   <polyline class="fil2" points="9840,14863 7769,11907 7769,14863 "/>
   <line class="fil2" x1="8465" y1="14643" x2="9052" y2= "16505" />
   <line class="fil2" x1="8769" y1="14547" x2="9356" y2= "16409" />
   <line class="fil2" x1="8769" y1="14547" x2="8465" y2= "14643" />
   <line class="fil2" x1="9356" y1="16409" x2="9052" y2= "16505" />
   <path class="fil2" d="M8234 4735c0,-1712 -1388,-3101 -3100,-3101 -1713,0 -3101,1389 -3101,3101 0,1712 1388,3100 3101,3100 1712,0 3100,-1388 3100,-3100z"/>
   <path class="fil2" d="M13204 6063c0,-1155 -936,-2091 -2091,-2091 -1156,0 -2092,936 -2092,2091 0,1155 936,2092 2092,2092 1155,0 2091,-936 2091,-2092z"/>
   <path class="fil2" d="M8553 4735c0,-1889 -1531,-3419 -3419,-3419 -1889,0 -3420,1530 -3420,3419 0,1888 1531,3419 3420,3419 1888,0 3419,-1531 3419,-3419z"/>
   <line class="fil2" x1="9297" y1="13533" x2="9112" y2= "13269" />
   <path class="fil2" d="M8547 12463c239,-335 237,-785 -4,-1118 -242,-333 -670,-474 -1062,-350 -392,123 -662,484 -669,896 -7,411 250,781 638,918"/>
   <path class="fil2" d="M8738 12735c370,-432 408,-1057 94,-1532 -314,-474 -904,-684 -1447,-512 -543,171 -906,681 -891,1250 15,568 405,1058 956,1201"/>
   <line class="fil2" x1="7450" y1="12809" x2="7450" y2= "13142" />
   <path class="fil2" d="M9112 13269c629,-621 752,-1592 296,-2349 -456,-757 -1372,-1103 -2215,-837 -843,265 -1394,1074 -1333,1956 61,882 718,1607 1590,1754"/>
   <path class="fil2" d="M9297 13533c759,-713 924,-1856 397,-2754 -526,-899 -1604,-1314 -2597,-1001 -993,314 -1637,1272 -1553,2310 85,1038 875,1879 1906,2028"/>
   <line class="fil2" x1="7450" y1="13793" x2="7450" y2= "14116" />
   <line class="fil2" x1="8738" y1="12735" x2="8547" y2= "12463" />
  </g>
 </g>
</svg>
