<?xml version="1.0" encoding="UTF-8"?>
<!DOCTYPE svg PUBLIC "-//W3C//DTD SVG 1.1//EN" "http://www.w3.org/Graphics/SVG/1.1/DTD/svg11.dtd">
<!-- Creator: CorelDRAW X8 -->
<svg xmlns="http://www.w3.org/2000/svg" xml:space="preserve" width="169.333mm" height="186.267mm" version="1.1" style="shape-rendering:geometricPrecision; text-rendering:geometricPrecision; image-rendering:optimizeQuality; fill-rule:evenodd; clip-rule:evenodd"
viewBox="0 0 16933 18627"
 xmlns:xlink="http://www.w3.org/1999/xlink">
 <defs>
  <style type="text/css">
   <![CDATA[
    .fil2 {fill:none}
    .fil0 {fill:black}
    .fil1 {fill:red}
    .fil4 {fill:black;fill-rule:nonzero}
    .fil3 {fill:red;fill-rule:nonzero}
   ]]>
  </style>
 </defs>
 <g id="Camada_x0020_1">
  <metadata id="CorelCorpID_0Corel-Layer"/>
  <g id="_949533952">
   <path class="fil0" d="M3106 5020c0,1529 1239,2768 2769,2768 1529,0 2768,-1239 2768,-2768 0,-1529 -1239,-2769 -2768,-2769 -1530,0 -2769,1240 -2769,2769zm5279 0c0,1386 -1124,2510 -2510,2510 -1387,0 -2511,-1124 -2511,-2510 0,-1387 1124,-2511 2511,-2511 1386,0 2510,1124 2510,2511z"/>
   <path class="fil0" d="M9022 6095c0,936 758,1694 1694,1694 935,0 1694,-758 1694,-1694 0,-935 -759,-1693 -1694,-1693 -936,0 -1694,758 -1694,1693zm1694 1436c-793,0 -1436,-643 -1436,-1436 0,-792 643,-1435 1436,-1435 793,0 1435,643 1435,1435 0,793 -642,1436 -1435,1436z"/>
   <path class="fil0" d="M4474 8821l0 4012c0,171 68,336 189,457 121,121 285,189 456,189l3147 0 0 -1833 1285 1833 225 0 1121 0c357,0 646,-289 646,-646l0 -1222 2532 719 0 -2866 -2532 719 0 -1362c0,-171 -68,-335 -189,-456 -121,-121 -285,-189 -457,-189l-5778 0c-171,0 -335,68 -456,189 -121,121 -189,285 -189,456zm258 4012l0 -4012c0,-103 41,-201 113,-274 73,-72 172,-113 274,-113l5778 0c103,0 202,41 274,113 73,73 114,171 114,274l0 4012c0,214 -174,387 -388,387l-1212 0 -1677 -2393 0 2393 -2889 0c-102,0 -201,-40 -274,-113 -72,-73 -113,-171 -113,-274zm6811 -1490l0 -892 2274 -645 0 2182 -2274 -645z"/>
   <path class="fil0" d="M6207 10974c68,840 709,1521 1543,1642l0 -262c-706,-119 -1238,-706 -1287,-1420 -49,-714 397,-1369 1079,-1584 683,-215 1424,65 1793,678 369,613 271,1399 -239,1902l150 214c614,-578 748,-1503 321,-2231 -426,-727 -1298,-1063 -2102,-809 -804,253 -1326,1029 -1258,1870z"/>
   <polygon class="fil0" points="8572,13043 9048,14551 9294,14473 8818,12965 "/>
   <path class="fil1" d="M6976 10854c12,461 328,858 774,973l0 -270c-314,-111 -522,-410 -516,-743 6,-333 224,-625 541,-726 318,-100 664,14 860,284 196,269 197,634 4,905l154 221c300,-350 331,-857 76,-1241 -254,-384 -732,-553 -1171,-415 -440,139 -734,552 -722,1012z"/>
   <path class="fil1" d="M6207 10974c68,840 709,1521 1543,1642l0 -262c-706,-119 -1238,-706 -1287,-1420 -49,-714 397,-1369 1079,-1584 683,-215 1424,65 1793,678 369,613 271,1399 -239,1902l150 214c614,-578 748,-1503 321,-2231 -426,-727 -1298,-1063 -2102,-809 -804,253 -1326,1029 -1258,1870z"/>
   <path class="fil1" d="M9280 6095c0,793 643,1436 1436,1436 793,0 1435,-643 1435,-1436 0,-792 -642,-1435 -1435,-1435 -793,0 -1436,643 -1436,1435z"/>
  </g>
  <g id="_948585888">
   <line class="fil2" x1="5119" y1="8176" x2="10897" y2= "8176" />
   <line class="fil2" x1="11543" y1="8821" x2="11543" y2= "10183" />
   <line class="fil2" x1="11543" y1="10451" x2="11543" y2= "11343" />
   <line class="fil2" x1="11543" y1="11611" x2="11543" y2= "12833" />
   <line class="fil2" x1="10897" y1="13479" x2="9776" y2= "13479" />
   <line class="fil2" x1="4474" y1="8821" x2="4474" y2= "12833" />
   <path class="fil2" d="M12151 6095c0,-792 -642,-1435 -1435,-1435 -793,0 -1436,643 -1436,1435 0,793 643,1436 1436,1436 793,0 1435,-643 1435,-1436z"/>
   <line class="fil2" x1="13817" y1="9806" x2="13817" y2= "11988" />
   <line class="fil2" x1="13817" y1="11988" x2="11543" y2= "11343" />
   <line class="fil2" x1="13817" y1="9806" x2="11543" y2= "10451" />
   <path class="fil2" d="M4474 12833c0,171 68,336 189,457 121,121 285,189 456,189"/>
   <path class="fil2" d="M10897 13479c357,0 646,-289 646,-646"/>
   <path class="fil2" d="M5119 8176c-171,0 -335,68 -456,189 -121,121 -189,285 -189,456"/>
   <path class="fil2" d="M11543 8821c0,-171 -68,-335 -189,-456 -121,-121 -285,-189 -457,-189"/>
   <line class="fil2" x1="10897" y1="13220" x2="9685" y2= "13220" />
   <path class="fil2" d="M4732 12833c0,103 41,201 113,274 73,73 172,113 274,113"/>
   <line class="fil2" x1="4732" y1="8821" x2="4732" y2= "12833" />
   <path class="fil2" d="M10897 13220c214,0 388,-173 388,-387"/>
   <line class="fil2" x1="11285" y1="8821" x2="11285" y2= "12833" />
   <line class="fil2" x1="5119" y1="8434" x2="10897" y2= "8434" />
   <path class="fil2" d="M5119 8434c-102,0 -201,41 -274,113 -72,73 -113,171 -113,274"/>
   <path class="fil2" d="M11285 8821c0,-103 -41,-201 -114,-274 -72,-72 -171,-113 -274,-113"/>
   <polyline class="fil2" points="11543,10183 14075,9464 14075,12330 11543,11611 "/>
   <line class="fil2" x1="9551" y1="13479" x2="10525" y2= "13479" />
   <line class="fil2" x1="9551" y1="13479" x2="8266" y2= "11646" />
   <line class="fil2" x1="8008" y1="13220" x2="5119" y2= "13220" />
   <line class="fil2" x1="8266" y1="13479" x2="5119" y2= "13479" />
   <line class="fil2" x1="8266" y1="13479" x2="8266" y2= "11646" />
   <polyline class="fil2" points="9685,13220 8008,10827 8008,13220 "/>
   <line class="fil2" x1="8572" y1="13043" x2="9048" y2= "14551" />
   <line class="fil2" x1="8818" y1="12965" x2="9294" y2= "14473" />
   <line class="fil2" x1="8818" y1="12965" x2="8572" y2= "13043" />
   <line class="fil2" x1="9294" y1="14473" x2="9048" y2= "14551" />
   <path class="fil2" d="M8385 5020c0,-1387 -1124,-2511 -2510,-2511 -1387,0 -2511,1124 -2511,2511 0,1386 1124,2510 2511,2510 1386,0 2510,-1124 2510,-2510z"/>
   <path class="fil2" d="M12410 6095c0,-935 -759,-1693 -1694,-1693 -936,0 -1694,758 -1694,1693 0,936 758,1694 1694,1694 935,0 1694,-758 1694,-1694z"/>
   <path class="fil2" d="M8643 5020c0,-1529 -1239,-2769 -2768,-2769 -1530,0 -2769,1240 -2769,2769 0,1529 1239,2768 2769,2768 1529,0 2768,-1239 2768,-2768z"/>
   <line class="fil2" x1="9246" y1="12144" x2="9096" y2= "11930" />
   <path class="fil2" d="M8639 11277c193,-271 192,-636 -4,-905 -196,-270 -542,-384 -860,-284 -317,101 -535,393 -541,726 -6,333 202,632 516,743"/>
   <path class="fil2" d="M8793 11498c300,-350 331,-857 76,-1241 -254,-384 -732,-553 -1171,-415 -440,139 -734,552 -722,1012 12,461 328,858 774,973"/>
   <line class="fil2" x1="7750" y1="11557" x2="7750" y2= "11827" />
   <path class="fil2" d="M9096 11930c510,-503 608,-1289 239,-1902 -369,-613 -1110,-893 -1793,-678 -682,215 -1128,870 -1079,1584 49,714 581,1301 1287,1420"/>
   <path class="fil2" d="M9246 12144c614,-578 748,-1503 321,-2231 -426,-727 -1298,-1063 -2102,-809 -804,253 -1326,1029 -1258,1870 68,840 709,1521 1543,1642"/>
   <line class="fil2" x1="7750" y1="12354" x2="7750" y2= "12616" />
   <line class="fil2" x1="8793" y1="11498" x2="8639" y2= "11277" />
  </g>
  <path class="fil3" d="M2922 14783l0 1669c0,167 -58,308 -173,424 -116,115 -256,173 -421,173l-239 0c-79,0 -119,-39 -119,-118 0,-79 40,-119 119,-119l239 0c100,0 184,-35 254,-104 69,-71 103,-155 103,-254l0 -1671c0,-79 40,-119 119,-119 78,0 118,39 118,119z"/>
  <path class="fil4" d="M3638 15857l0 716c0,66 24,122 70,168 47,48 103,71 169,71l357 0c80,0 119,40 119,119 0,79 -39,118 -119,118l-357 0c-134,0 -247,-46 -338,-138 -92,-92 -138,-205 -138,-338l0 -715c0,-134 46,-247 138,-339 91,-92 204,-138 338,-138l357 0c80,0 119,40 119,119 0,78 -39,118 -119,118l-357 0c-67,0 -123,23 -169,70 -46,46 -70,102 -70,169zm1667 1192c-133,0 -246,-46 -339,-138 -91,-92 -138,-205 -138,-339 0,-87 21,-167 64,-240 90,-158 228,-237 413,-237l477 0 0 -239c0,-67 -23,-123 -69,-170 -46,-45 -102,-68 -170,-68l-476 0c-80,0 -119,-40 -119,-118 0,-79 39,-119 119,-119l476 0c134,0 247,46 338,138 92,92 137,205 137,339l0 1072c0,80 -39,119 -118,119l-595 0zm477 -717l-477 0c-66,0 -122,23 -169,70 -46,47 -69,103 -69,170 0,65 23,122 70,169 47,48 103,71 168,71l477 0 0 -480zm833 -951l1070 0c133,0 245,46 337,138 92,92 138,205 138,339l0 1072c0,80 -39,119 -118,119 -79,0 -118,-40 -118,-120l0 -1073c0,-67 -23,-123 -69,-170 -46,-45 -103,-68 -170,-68l-238 0 0 1311c0,80 -40,120 -119,120 -79,0 -118,-40 -118,-120l0 -1311 -477 0 0 1311c0,80 -40,120 -119,120 -78,0 -118,-39 -118,-119l0 -1430c0,-79 40,-119 119,-119zm2624 237c-99,0 -183,35 -253,105 -69,70 -105,154 -105,253l0 119 715 0 0 -119c0,-99 -34,-183 -104,-253 -70,-70 -154,-105 -253,-105zm-358 714l0 240c0,65 24,122 71,169 47,48 103,71 168,71l596 0c79,0 119,40 119,119 0,79 -40,118 -119,118l-596 0c-134,0 -247,-46 -338,-138 -92,-92 -137,-205 -137,-338l0 -596c0,-165 58,-306 173,-421 116,-117 256,-175 421,-175 168,0 309,58 423,172 116,115 173,255 173,422l0 357 -954 0zm1432 -832c0,-79 40,-119 119,-119l714 0c79,0 119,40 119,119l0 237c0,79 -40,119 -119,119 -80,0 -120,-40 -120,-119l0 -119 -476 0 0 1311c0,80 -40,120 -118,120 -79,0 -119,-39 -119,-119l0 -1430zm1904 1549c-134,0 -246,-46 -339,-138 -92,-92 -138,-205 -138,-339 0,-87 21,-167 64,-240 90,-158 228,-237 413,-237l477 0 0 -239c0,-67 -23,-123 -69,-170 -46,-45 -102,-68 -170,-68l-476 0c-80,0 -119,-40 -119,-118 0,-79 39,-119 119,-119l476 0c134,0 247,46 338,138 92,92 137,205 137,339l0 1072c0,80 -39,119 -118,119l-595 0zm477 -717l-477 0c-66,0 -123,23 -169,70 -47,47 -69,103 -69,170 0,65 23,122 70,169 47,48 103,71 168,71l477 0 0 -480zm1669 302c0,-76 -34,-130 -101,-162l-612 -295c-160,-77 -240,-203 -240,-377 0,-137 56,-243 169,-318 98,-64 220,-97 365,-97 177,0 335,44 475,131 42,26 63,61 63,104 0,32 -12,60 -35,84 -23,23 -52,35 -84,35 -22,0 -40,-5 -56,-15 -114,-68 -235,-102 -363,-102 -197,0 -296,59 -296,176 0,75 32,128 98,159l617 298c159,77 238,203 238,377 0,145 -57,253 -171,325 -98,61 -223,92 -377,92 -229,0 -421,-44 -577,-131 -44,-25 -66,-60 -66,-106 0,-32 11,-60 35,-83 23,-24 51,-36 84,-36 16,0 31,3 45,9 39,17 95,39 170,67 108,29 213,43 315,43 203,0 304,-59 304,-178z"/>
 </g>
</svg>
