<?xml version="1.0" encoding="UTF-8"?>
<!DOCTYPE svg PUBLIC "-//W3C//DTD SVG 1.1//EN" "http://www.w3.org/Graphics/SVG/1.1/DTD/svg11.dtd">
<!-- Creator: CorelDRAW X8 -->
<svg xmlns="http://www.w3.org/2000/svg" xml:space="preserve" width="423.333mm" height="169.333mm" version="1.1" style="shape-rendering:geometricPrecision; text-rendering:geometricPrecision; image-rendering:optimizeQuality; fill-rule:evenodd; clip-rule:evenodd"
viewBox="0 0 42333 16933"
 xmlns:xlink="http://www.w3.org/1999/xlink">
 <defs>
  <style type="text/css">
   <![CDATA[
    .fil2 {fill:none}
    .fil0 {fill:black}
    .fil1 {fill:red}
    .fil4 {fill:black;fill-rule:nonzero}
    .fil3 {fill:red;fill-rule:nonzero}
   ]]>
  </style>
 </defs>
 <g id="Camada_x0020_1">
  <metadata id="CorelCorpID_0Corel-Layer"/>
  <g id="_948598008">
   <path class="fil0" d="M1582 5480c0,1529 1240,2768 2769,2768 1529,0 2768,-1239 2768,-2768 0,-1529 -1239,-2769 -2768,-2769 -1529,0 -2769,1240 -2769,2769zm5279 0c0,1386 -1124,2510 -2510,2510 -1387,0 -2511,-1124 -2511,-2510 0,-1387 1124,-2511 2511,-2511 1386,0 2510,1124 2510,2511z"/>
   <path class="fil0" d="M7498 6556c0,935 759,1693 1694,1693 935,0 1694,-758 1694,-1693 0,-936 -759,-1694 -1694,-1694 -935,0 -1694,758 -1694,1694zm1694 1435c-793,0 -1436,-643 -1436,-1435 0,-793 643,-1436 1436,-1436 793,0 1436,643 1436,1436 0,792 -643,1435 -1436,1435z"/>
   <path class="fil0" d="M2950 9281l0 4012c0,171 68,336 189,457 121,121 285,189 456,189l3148 0 0 -1833 1284 1833 225 0 1122 0c356,0 645,-289 645,-646l0 -1222 2532 719 0 -2866 -2532 719 0 -1362c0,-171 -68,-335 -189,-456 -121,-121 -285,-189 -456,-189l-5779 0c-171,0 -335,68 -456,189 -121,121 -189,285 -189,456zm258 4012l0 -4012c0,-103 41,-201 114,-274 72,-72 171,-113 273,-113l5779 0c102,0 201,41 273,113 73,73 114,171 114,274l0 4012c0,214 -174,388 -387,388l-1213 0 -1677 -2394 0 2394 -2889 0c-102,0 -201,-41 -273,-114 -73,-73 -114,-171 -114,-274zm6811 -1490l0 -892 2274 -645 0 2182 -2274 -645z"/>
   <path class="fil0" d="M4683 11434c69,840 709,1521 1543,1642l0 -261c-705,-120 -1237,-707 -1287,-1421 -49,-714 397,-1369 1080,-1584 682,-215 1423,65 1792,678 370,613 271,1399 -239,1902l150 214c615,-578 748,-1503 322,-2230 -427,-728 -1299,-1064 -2103,-810 -804,253 -1326,1029 -1258,1870z"/>
   <polygon class="fil0" points="7048,13503 7524,15011 7770,14933 7294,13425 "/>
   <path class="fil1" d="M5452 11315c12,460 328,857 774,972l0 -270c-314,-111 -522,-410 -516,-743 6,-333 224,-625 542,-725 317,-101 663,14 859,283 196,269 197,634 4,905l155 221c299,-350 330,-857 76,-1241 -255,-384 -733,-553 -1172,-415 -440,139 -734,552 -722,1013z"/>
   <path class="fil1" d="M4683 11434c69,840 709,1521 1543,1642l0 -261c-705,-120 -1237,-707 -1287,-1421 -49,-714 397,-1369 1080,-1584 682,-215 1423,65 1792,678 370,613 271,1399 -239,1902l150 214c615,-578 748,-1503 322,-2230 -427,-728 -1299,-1064 -2103,-810 -804,253 -1326,1029 -1258,1870z"/>
   <path class="fil1" d="M7756 6556c0,792 643,1435 1436,1435 793,0 1436,-643 1436,-1435 0,-793 -643,-1436 -1436,-1436 -793,0 -1436,643 -1436,1436z"/>
  </g>
  <g id="_949522480">
   <line class="fil2" x1="3595" y1="8636" x2="9374" y2= "8636" />
   <line class="fil2" x1="10019" y1="9281" x2="10019" y2= "10643" />
   <line class="fil2" x1="10019" y1="10911" x2="10019" y2= "11803" />
   <line class="fil2" x1="10019" y1="12071" x2="10019" y2= "13293" />
   <line class="fil2" x1="9374" y1="13939" x2="8252" y2= "13939" />
   <line class="fil2" x1="2950" y1="9281" x2="2950" y2= "13293" />
   <path class="fil2" d="M10628 6556c0,-793 -643,-1436 -1436,-1436 -793,0 -1436,643 -1436,1436 0,792 643,1435 1436,1435 793,0 1436,-643 1436,-1435z"/>
   <line class="fil2" x1="12293" y1="10266" x2="12293" y2= "12448" />
   <line class="fil2" x1="12293" y1="12448" x2="10019" y2= "11803" />
   <line class="fil2" x1="12293" y1="10266" x2="10019" y2= "10911" />
   <path class="fil2" d="M2950 13293c0,171 68,336 189,457 121,121 285,189 456,189"/>
   <path class="fil2" d="M9374 13939c356,0 645,-289 645,-646"/>
   <path class="fil2" d="M3595 8636c-171,0 -335,68 -456,189 -121,121 -189,285 -189,456"/>
   <path class="fil2" d="M10019 9281c0,-171 -68,-335 -189,-456 -121,-121 -285,-189 -456,-189"/>
   <line class="fil2" x1="9374" y1="13681" x2="8161" y2= "13681" />
   <path class="fil2" d="M3208 13293c0,103 41,201 114,274 72,73 171,114 273,114"/>
   <line class="fil2" x1="3208" y1="9281" x2="3208" y2= "13293" />
   <path class="fil2" d="M9374 13681c213,0 387,-174 387,-388"/>
   <line class="fil2" x1="9761" y1="9281" x2="9761" y2= "13293" />
   <line class="fil2" x1="3595" y1="8894" x2="9374" y2= "8894" />
   <path class="fil2" d="M3595 8894c-102,0 -201,41 -273,113 -73,73 -114,171 -114,274"/>
   <path class="fil2" d="M9761 9281c0,-103 -41,-201 -114,-274 -72,-72 -171,-113 -273,-113"/>
   <polyline class="fil2" points="10019,10643 12551,9924 12551,12790 10019,12071 "/>
   <line class="fil2" x1="8027" y1="13939" x2="9002" y2= "13939" />
   <line class="fil2" x1="8027" y1="13939" x2="6743" y2= "12106" />
   <line class="fil2" x1="6484" y1="13681" x2="3595" y2= "13681" />
   <line class="fil2" x1="6743" y1="13939" x2="3595" y2= "13939" />
   <line class="fil2" x1="6743" y1="13939" x2="6743" y2= "12106" />
   <polyline class="fil2" points="8161,13681 6484,11287 6484,13681 "/>
   <line class="fil2" x1="7048" y1="13503" x2="7524" y2= "15011" />
   <line class="fil2" x1="7294" y1="13425" x2="7770" y2= "14933" />
   <line class="fil2" x1="7294" y1="13425" x2="7048" y2= "13503" />
   <line class="fil2" x1="7770" y1="14933" x2="7524" y2= "15011" />
   <path class="fil2" d="M6861 5480c0,-1387 -1124,-2511 -2510,-2511 -1387,0 -2511,1124 -2511,2511 0,1386 1124,2510 2511,2510 1386,0 2510,-1124 2510,-2510z"/>
   <path class="fil2" d="M10886 6556c0,-936 -759,-1694 -1694,-1694 -935,0 -1694,758 -1694,1694 0,935 759,1693 1694,1693 935,0 1694,-758 1694,-1693z"/>
   <path class="fil2" d="M7119 5480c0,-1529 -1239,-2769 -2768,-2769 -1529,0 -2769,1240 -2769,2769 0,1529 1240,2768 2769,2768 1529,0 2768,-1239 2768,-2768z"/>
   <line class="fil2" x1="7722" y1="12604" x2="7572" y2= "12390" />
   <path class="fil2" d="M7115 11737c193,-271 192,-636 -4,-905 -196,-269 -542,-384 -859,-283 -318,100 -536,392 -542,725 -6,333 202,632 516,743"/>
   <path class="fil2" d="M7270 11958c299,-350 330,-857 76,-1241 -255,-384 -733,-553 -1172,-415 -440,139 -734,552 -722,1013 12,460 328,857 774,972"/>
   <line class="fil2" x1="6226" y1="12017" x2="6226" y2= "12287" />
   <path class="fil2" d="M7572 12390c510,-503 609,-1289 239,-1902 -369,-613 -1110,-893 -1792,-678 -683,215 -1129,870 -1080,1584 50,714 582,1301 1287,1421"/>
   <path class="fil2" d="M7722 12604c615,-578 748,-1503 322,-2230 -427,-728 -1299,-1064 -2103,-810 -804,253 -1326,1029 -1258,1870 69,840 709,1521 1543,1642"/>
   <line class="fil2" x1="6226" y1="12815" x2="6226" y2= "13076" />
   <line class="fil2" x1="7270" y1="11958" x2="7115" y2= "11737" />
  </g>
  <path class="fil3" d="M15613 8904l0 3711c0,370 -129,684 -385,941 -258,257 -569,385 -936,385l-530 0c-177,0 -265,-87 -265,-263 0,-175 88,-263 265,-263l530 0c222,0 410,-78 564,-233 154,-156 231,-344 231,-563l0 -3714c0,-177 87,-266 263,-266 175,0 263,88 263,265z"/>
  <path class="fil4" d="M17205 11292l0 1592c0,145 52,270 156,374 104,105 229,157 374,157l795 0c176,0 264,88 264,263 0,176 -88,263 -264,263l-795 0c-297,0 -548,-102 -751,-307 -204,-204 -305,-454 -305,-752l0 -1589c0,-297 101,-548 305,-752 203,-204 454,-307 751,-307l795 0c176,0 264,88 264,263 0,175 -88,263 -264,263l-795 0c-148,0 -273,52 -375,155 -103,103 -155,229 -155,377zm3706 2649c-298,0 -548,-102 -754,-307 -204,-205 -307,-456 -307,-753 0,-193 47,-371 141,-534 200,-351 507,-527 920,-527l1059 0 0 -530c0,-149 -51,-275 -152,-378 -103,-101 -228,-152 -378,-152l-1059 0c-177,0 -265,-88 -265,-263 0,-175 88,-263 265,-263l1059 0c297,0 548,103 750,307 204,204 306,455 306,752l0 2384c0,177 -88,264 -263,264l-1322 0zm1059 -1594l-1059 0c-148,0 -273,52 -376,156 -104,104 -154,230 -154,378 0,145 52,271 156,377 104,105 228,157 374,157l1059 0 0 -1068zm1852 -2113l2379 0c295,0 545,103 749,307 204,204 307,455 307,752l0 2384c0,177 -88,264 -263,264 -176,0 -263,-89 -263,-265l0 -2386c0,-149 -51,-275 -152,-378 -103,-101 -229,-152 -378,-152l-531 0 0 2916c0,176 -87,265 -263,265 -175,0 -263,-89 -263,-265l0 -2916 -1060 0 0 2916c0,176 -88,265 -263,265 -176,0 -263,-87 -263,-264l0 -3179c0,-176 87,-264 264,-264zm5832 527c-219,0 -406,77 -561,232 -155,156 -233,342 -233,563l0 264 1589 0 0 -264c0,-221 -77,-407 -233,-563 -155,-155 -342,-232 -562,-232zm-794 1586l0 534c0,145 52,271 156,377 104,105 229,157 374,157l1325 0c175,0 264,88 264,263 0,176 -89,263 -264,263l-1325 0c-297,0 -548,-102 -751,-307 -204,-204 -305,-454 -305,-752l0 -1325c0,-365 128,-678 385,-935 257,-259 570,-388 935,-388 373,0 687,127 942,382 256,255 383,567 383,939l0 792 -2119 0zm3182 -1849c0,-176 88,-264 263,-264l1588 0c177,0 265,88 265,263l0 527c0,177 -88,266 -265,266 -176,0 -265,-89 -265,-266l0 -264 -1059 0 0 2916c0,176 -88,265 -264,265 -175,0 -263,-87 -263,-264l0 -3179zm4233 3443c-298,0 -548,-102 -754,-307 -204,-205 -307,-456 -307,-753 0,-193 47,-371 141,-534 200,-351 507,-527 920,-527l1059 0 0 -530c0,-149 -51,-275 -152,-378 -103,-101 -228,-152 -379,-152l-1059 0c-176,0 -264,-88 -264,-263 0,-175 88,-263 264,-263l1059 0c298,0 548,103 751,307 204,204 306,455 306,752l0 2384c0,177 -88,264 -263,264l-1322 0zm1059 -1594l-1059 0c-148,0 -273,52 -376,156 -104,104 -155,230 -155,378 0,145 52,271 157,377 104,105 228,157 374,157l1059 0 0 -1068zm3711 671c0,-169 -75,-289 -225,-360l-1361 -655c-355,-172 -533,-451 -533,-839 0,-304 126,-540 376,-705 217,-144 488,-217 811,-217 394,0 746,97 1055,291 95,59 142,135 142,231 0,73 -27,134 -79,186 -52,53 -115,79 -186,79 -49,0 -90,-10 -125,-32 -254,-152 -523,-229 -807,-229 -438,0 -659,132 -659,393 0,166 73,284 218,354l1373 662c352,171 529,450 529,838 0,321 -126,562 -381,722 -216,136 -496,204 -838,204 -509,0 -936,-97 -1281,-290 -99,-56 -148,-134 -148,-236 0,-72 26,-134 78,-186 52,-52 113,-78 186,-78 36,0 69,5 100,19 86,38 212,88 378,149 241,65 474,96 702,96 450,0 675,-133 675,-397z"/>
 </g>
</svg>
