<?xml version="1.0" encoding="UTF-8"?>
<!DOCTYPE svg PUBLIC "-//W3C//DTD SVG 1.1//EN" "http://www.w3.org/Graphics/SVG/1.1/DTD/svg11.dtd">
<!-- Creator: CorelDRAW X8 -->
<svg xmlns="http://www.w3.org/2000/svg" xml:space="preserve" width="169.333mm" height="169.333mm" version="1.1" style="shape-rendering:geometricPrecision; text-rendering:geometricPrecision; image-rendering:optimizeQuality; fill-rule:evenodd; clip-rule:evenodd"
viewBox="0 0 16933 16933"
 xmlns:xlink="http://www.w3.org/1999/xlink">
 <defs>
  <style type="text/css">
   <![CDATA[
    .fil1 {fill:none}
    .fil0 {fill:white}
   ]]>
  </style>
 </defs>
 <g id="Camada_x0020_1">
  <metadata id="CorelCorpID_0Corel-Layer"/>
  <g id="_945393568">
   <path class="fil0" d="M3437 4646c0,1529 1240,2768 2769,2768 1529,0 2768,-1239 2768,-2768 0,-1529 -1239,-2769 -2768,-2769 -1529,0 -2769,1240 -2769,2769zm5279 0c0,1386 -1124,2510 -2510,2510 -1387,0 -2511,-1124 -2511,-2510 0,-1387 1124,-2511 2511,-2511 1386,0 2510,1124 2510,2511z"/>
   <path class="fil0" d="M9353 5721c0,936 759,1694 1694,1694 936,0 1694,-758 1694,-1694 0,-935 -758,-1693 -1694,-1693 -935,0 -1694,758 -1694,1693zm1694 1436c-793,0 -1435,-643 -1435,-1436 0,-792 642,-1435 1435,-1435 793,0 1436,643 1436,1435 0,793 -643,1436 -1436,1436z"/>
   <path class="fil0" d="M4805 8447l0 4012c0,171 68,336 189,457 121,121 285,189 457,189l3147 0 0 -1833 1284 1833 225 0 1122 0c356,0 645,-289 645,-646l0 -1222 2532 719 0 -2866 -2532 719 0 -1362c0,-171 -68,-335 -189,-456 -121,-121 -285,-189 -456,-189l-5778 0c-172,0 -336,68 -457,189 -121,121 -189,285 -189,456zm258 4012l0 -4012c0,-103 41,-201 114,-274 72,-72 171,-113 274,-113l5778 0c102,0 201,41 274,113 72,73 113,171 113,274l0 4012c0,214 -173,387 -387,387l-1213 0 -1676 -2393 0 2393 -2889 0c-103,0 -202,-40 -274,-113 -73,-73 -114,-171 -114,-274zm6811 -1490l0 -892 2274 -645 0 2182 -2274 -645z"/>
   <path class="fil0" d="M6538 10600c69,840 709,1521 1544,1642l-1 -262c-705,-119 -1237,-706 -1287,-1420 -49,-714 397,-1369 1080,-1584 682,-215 1423,65 1793,678 369,613 270,1399 -240,1902l150 214c615,-578 748,-1503 322,-2231 -426,-727 -1299,-1063 -2103,-809 -804,253 -1326,1029 -1258,1870z"/>
   <polygon class="fil0" points="8903,12669 9379,14177 9625,14099 9149,12591 "/>
   <path class="fil0" d="M7307 10480c13,461 328,858 775,973l0 -270c-315,-111 -522,-410 -517,-743 6,-333 224,-625 542,-726 317,-100 663,14 859,284 196,269 198,634 4,905l155 221c299,-350 330,-857 76,-1241 -255,-384 -733,-553 -1172,-415 -439,139 -734,552 -722,1012z"/>
   <path class="fil0" d="M6538 10600c69,840 709,1521 1544,1642l-1 -262c-705,-119 -1237,-706 -1287,-1420 -49,-714 397,-1369 1080,-1584 682,-215 1423,65 1793,678 369,613 270,1399 -240,1902l150 214c615,-578 748,-1503 322,-2231 -426,-727 -1299,-1063 -2103,-809 -804,253 -1326,1029 -1258,1870z"/>
   <path class="fil0" d="M9612 5721c0,793 642,1436 1435,1436 793,0 1436,-643 1436,-1436 0,-792 -643,-1435 -1436,-1435 -793,0 -1435,643 -1435,1435z"/>
  </g>
  <line class="fil1" x1="5451" y1="7802" x2="11229" y2= "7802" />
  <line class="fil1" x1="11874" y1="8447" x2="11874" y2= "9809" />
  <line class="fil1" x1="11874" y1="10077" x2="11874" y2= "10969" />
  <line class="fil1" x1="11874" y1="11237" x2="11874" y2= "12459" />
  <line class="fil1" x1="11229" y1="13105" x2="10107" y2= "13105" />
  <line class="fil1" x1="4805" y1="8447" x2="4805" y2= "12459" />
  <path class="fil0" d="M12483 5721c0,-792 -643,-1435 -1436,-1435 -793,0 -1435,643 -1435,1435 0,793 642,1436 1435,1436 793,0 1436,-643 1436,-1436z"/>
  <line class="fil1" x1="14148" y1="9432" x2="14148" y2= "11614" />
  <line class="fil1" x1="14148" y1="11614" x2="11874" y2= "10969" />
  <line class="fil1" x1="14148" y1="9432" x2="11874" y2= "10077" />
  <path class="fil1" d="M4805 12459c0,171 68,336 189,457 121,121 285,189 457,189"/>
  <path class="fil1" d="M11229 13105c356,0 645,-289 645,-646"/>
  <path class="fil1" d="M5451 7802c-172,0 -336,68 -457,189 -121,121 -189,285 -189,456"/>
  <path class="fil1" d="M11874 8447c0,-171 -68,-335 -189,-456 -121,-121 -285,-189 -456,-189"/>
  <line class="fil1" x1="11229" y1="12846" x2="10016" y2= "12846" />
  <path class="fil1" d="M5063 12459c0,103 41,201 114,274 72,73 171,113 274,113"/>
  <line class="fil1" x1="5063" y1="8447" x2="5063" y2= "12459" />
  <path class="fil1" d="M11229 12846c214,0 387,-173 387,-387"/>
  <line class="fil1" x1="11616" y1="8447" x2="11616" y2= "12459" />
  <line class="fil1" x1="5451" y1="8060" x2="11229" y2= "8060" />
  <path class="fil1" d="M5451 8060c-103,0 -202,41 -274,113 -73,73 -114,171 -114,274"/>
  <path class="fil1" d="M11616 8447c0,-103 -41,-201 -113,-274 -73,-72 -172,-113 -274,-113"/>
  <polyline class="fil1" points="11874,9809 14406,9090 14406,11956 11874,11237 "/>
  <line class="fil1" x1="9882" y1="13105" x2="10857" y2= "13105" />
  <line class="fil1" x1="9882" y1="13105" x2="8598" y2= "11272" />
  <line class="fil1" x1="8340" y1="12846" x2="5451" y2= "12846" />
  <line class="fil1" x1="8598" y1="13105" x2="5451" y2= "13105" />
  <line class="fil1" x1="8598" y1="13105" x2="8598" y2= "11272" />
  <polyline class="fil1" points="10016,12846 8340,10453 8340,12846 "/>
  <line class="fil1" x1="8903" y1="12669" x2="9379" y2= "14177" />
  <line class="fil1" x1="9149" y1="12591" x2="9625" y2= "14099" />
  <line class="fil1" x1="9149" y1="12591" x2="8903" y2= "12669" />
  <line class="fil1" x1="9625" y1="14099" x2="9379" y2= "14177" />
  <path class="fil0" d="M12741 5721c0,-935 -758,-1693 -1694,-1693 -935,0 -1694,758 -1694,1693 0,936 759,1694 1694,1694 936,0 1694,-758 1694,-1694z"/>
  <line class="fil1" x1="9577" y1="11770" x2="9427" y2= "11556" />
  <path class="fil1" d="M8970 10903c194,-271 192,-636 -4,-905 -196,-270 -542,-384 -859,-284 -318,101 -536,393 -542,726 -5,333 202,632 517,743"/>
  <path class="fil1" d="M9125 11124c299,-350 330,-857 76,-1241 -255,-384 -733,-553 -1172,-415 -439,139 -734,552 -722,1012 13,461 328,858 775,973"/>
  <line class="fil1" x1="8082" y1="11183" x2="8082" y2= "11453" />
  <path class="fil1" d="M9427 11556c510,-503 609,-1289 240,-1902 -370,-613 -1111,-893 -1793,-678 -683,215 -1129,870 -1080,1584 50,714 582,1301 1287,1420"/>
  <line class="fil1" x1="8082" y1="11980" x2="8082" y2= "12242" />
  <line class="fil1" x1="9125" y1="11124" x2="8970" y2= "10903" />
 </g>
</svg>
