<svg class="jcameras-player" xmlns="http://www.w3.org/2000/svg" xmlns:xlink="http://www.w3.org/1999/xlink">
  <def>
    <g id="mouse" fill="#000000" fill-rule="nonzero">
      <path d="M27.78125,0 C24.5932617,0 22,2.59375 22,5.78125 L22,16.2519531 C10.0558472,16.7773437 0.5,26.6556396 0.5,38.7265625 L0.5,57.5 C0.5,69.90625 10.5932617,80 23,80 C35.4067383,80 45.5,69.90625 45.5,57.5 L45.5,38.7265625 C45.5,26.6556396 35.9441528,16.7773437 24,16.2519531 L24,5.78125 C24,3.6962891 25.6962891,2 27.78125,2 C29.8662109,2 31.5625,3.6962891 31.5625,5.78125 L31.5625,8.9345703 C31.5625,12.1220703 34.1557617,14.7158203 37.34375,14.7158203 C40.5317383,14.7158203 43.125,12.1220703 43.125,8.9345703 L43.125,1.3164062 C43.125,0.7636718 42.6772461,0.3164062 42.125,0.3164062 C41.5727539,0.3164062 41.125,0.7636718 41.125,1.3164062 L41.125,8.9345703 C41.125,11.0195312 39.4287109,12.7158203 37.34375,12.7158203 C35.2587891,12.7158203 33.5625,11.0195312 33.5625,8.9345703 L33.5625,5.78125 C33.5625,2.59375 30.9692383,0 27.78125,0 Z M23,31.7060547 C24.9296875,31.7060547 26.5,33.2763672 26.5,35.2060547 L26.5,40.5390625 C26.5,42.46875 24.9296875,44.0390625 23,44.0390625 C21.0703125,44.0390625 19.5,42.46875 19.5,40.5390625 L19.5,35.2060547 C19.5,33.2763672 21.0703125,31.7060547 23,31.7060547 Z M22,18.2772217 L22,29.8016358 C19.4437866,30.2738648 17.5,32.5156861 17.5,35.2060547 L17.5,39 L2.5,39 L2.5,38.7265625 C2.5,27.760376 11.1621094,18.803894 22,18.2772217 Z M23,78 C11.6962891,78 2.5,68.8037109 2.5,57.5 L2.5,41 L17.5233765,41 C17.7588501,43.8169556 20.1228638,46.0390625 23,46.0390625 C25.8771362,46.0390625 28.2411499,43.8169556 28.4766235,41 L43.5,41 L43.5,57.5 C43.5,68.8037109 34.3037109,78 23,78 Z M43.5,38.7265625 L43.5,39 L28.5,39 L28.5,35.2060547 C28.5,32.515686 26.5562134,30.2738648 24,29.8016358 L24,18.2772217 C34.8378906,18.803894 43.5,27.760376 43.5,38.7265625 Z" />
      <path d="M23,78 C11.6962891,78 2.5,68.8037109 2.5,57.5 L2.5,41 L17.5233765,41 C17.7588501,43.8169556 20.1228638,46.0390625 23,46.0390625 C25.8771362,46.0390625 28.2411499,43.8169556 28.4766235,41 L43.5,41 L43.5,57.5 C43.5,68.8037109 34.3037109,78 23,78 Z"/>
      <path d="M43.5,38.7265625 L43.5,39 L28.5,39 L28.5,35.2060547 C28.5,32.515686 26.5562134,30.2738648 24,29.8016358 L24,18.2772217 C34.8378906,18.803894 43.5,27.760376 43.5,38.7265625 Z" />
      <path d="M22,18.2772217 L22,29.8016358 C19.4437866,30.2738648 17.5,32.5156861 17.5,35.2060547 L17.5,39 L2.5,39 L2.5,38.7265625 C2.5,27.760376 11.1621094,18.803894 22,18.2772217 Z" />
      <path d="M23,31.7060547 C24.9296875,31.7060547 26.5,33.2763672 26.5,35.2060547 L26.5,40.5390625 C26.5,42.46875 24.9296875,44.0390625 23,44.0390625 C21.0703125,44.0390625 19.5,42.46875 19.5,40.5390625 L19.5,35.2060547 C19.5,33.2763672 21.0703125,31.7060547 23,31.7060547 Z" />
    </g>
    <g id="mouse-right" transform="scale(0.3) translate(-25,-30)">
      <use xlink:href="#mouse"></use>
      <path d="M43.5,38.7265625 L43.5,39 L28.5,39 L28.5,35.2060547 C28.5,32.515686 26.5562134,30.2738648 24,29.8016358 L24,18.2772217 C34.8378906,18.803894 43.5,27.760376 43.5,38.7265625 Z" />
    </g>
    <g id="mouse-left" transform="scale(0.3) translate(-25,-30)">
      <use xlink:href="#mouse"></use>
      <path d="M22,18.2772217 L22,29.8016358 C19.4437866,30.2738648 17.5,32.5156861 17.5,35.2060547 L17.5,39 L2.5,39 L2.5,38.7265625 C2.5,27.760376 11.1621094,18.803894 22,18.2772217 Z" />
    </g>
    <g id="mouse-double" transform="scale(0.3) translate(-25,-30)">
      <use xlink:href="#mouse"></use>
      <path d="M22,18.2772217 L22,29.8016358 C19.4437866,30.2738648 17.5,32.5156861 17.5,35.2060547 L17.5,39 L2.5,39 L2.5,38.7265625 C2.5,27.760376 11.1621094,18.803894 22,18.2772217 Z" />
      <g transform="translate(-35,-10)" stroke="red">
        <rect x="51.157" y="4.625" width="1.5" height="7.908" />
        <rect x="51.157" y="19.145" width="1.5" height="7.908" />
        <rect x="40.693" y="15.089" width="7.908" height="1.5" />
        <rect x="55.213" y="15.089" width="7.908" height="1.5" />
        <rect x="56.291" y="8.729" transform="matrix(0.7071 0.7071 -0.7071 0.7071 24.2772 -37.1987)" width="1.5" height="3.953" />
        <rect x="46.023" y="18.995" transform="matrix(-0.7071 -0.7071 0.7071 -0.7071 65.0172 68.8759)" width="1.5" height="3.955" />
        <rect x="46.024" y="8.729" transform="matrix(-0.7071 0.7071 -0.7071 -0.7071 87.418 -14.7974)" width="1.5" height="3.955" />
        <rect x="56.291" y="18.996" transform="matrix(0.7071 -0.7071 0.7071 0.7071 1.8772 46.4769)" width="1.5" height="3.954" />
        <rect x="23.945" y="4.625" width="1.5" height="7.908" />
        <rect x="23.945" y="19.145" width="1.5" height="7.908" />
        <rect x="13.481" y="15.089" width="7.908" height="1.5" />
        <rect x="28" y="15.089" width="7.909" height="1.5" />
        <rect x="29.08" y="8.73" transform="matrix(0.7071 0.7071 -0.7071 0.7071 16.3073 -17.9569)" width="1.5" height="3.953" />
        <rect x="17.583" y="20.221" transform="matrix(0.7073 -0.7069 0.7069 0.7073 -9.0996 19.9658)" width="3.955" height="1.5" />
        <rect x="18.812" y="8.727" transform="matrix(0.7071 -0.7071 0.7071 0.7071 -1.8397 16.968)" width="1.5" height="3.955" />
        <rect x="29.078" y="18.997" transform="matrix(-0.7071 0.7071 -0.7071 -0.7071 65.7501 14.7128)" width="1.5" height="3.954" />
      </g>
    </g>
    <g id="mouse-middle" transform="scale(0.3) translate(-25,-30)">
      <use xlink:href="#mouse" />
      <path d="M23,31.7060547 C24.9296875,31.7060547 26.5,33.2763672 26.5,35.2060547 L26.5,40.5390625 C26.5,42.46875 24.9296875,44.0390625 23,44.0390625 C21.0703125,44.0390625 19.5,42.46875 19.5,40.5390625 L19.5,35.2060547 C19.5,33.2763672 21.0703125,31.7060547 23,31.7060547 Z" />
    </g>
    <g id="mouse-pointer" transform="scale(0.2)">
      <path d="M89,43L12.3,10.1c-1.4-0.6-2.7,0.8-2.2,2.2L43,89c0.6,1.4,2.6,1.3,3.1-0.1l7.7-23l19.6,19.6c2.5,2.5,6.1,2.9,8.1,0.9  l4.8-4.8c2-2,1.6-5.6-0.9-8.1L65.8,53.8l23-7.7C90.3,45.6,90.4,43.6,89,43z" />
    </g>
  </def>
  <path class="locus-path" />
  <g class="moving-points" />
  <g class="click-points" />
  <g class="double-points" />
  <g class="menu-points" />
  <g class="wheel-points" />
  <path class="drag-path" />
  <g class="current" transform="translate(-1000,-1000)"><use xlink:href="#mouse-pointer" /></g>
  <!--remove desc="preview"-->
  <use transform="translate(100,200)" xlink:href="#mouse-left"></use>
  <use transform="translate(100,100)" xlink:href="#mouse-double"></use>
  <!--/remove-->
</svg>